<svg width="190" height="68" viewBox="0 0 190 68" fill="none" xmlns="http://www.w3.org/2000/svg">
<g clip-path="url(#clip0_1_342)" filter="url(#filter0_d_1_342)">
<path d="M49 0H18C10.268 0 4 6.26801 4 14V46C4 53.732 10.268 60 18 60H49C56.732 60 63 53.732 63 46V14C63 6.26801 56.732 0 49 0Z" fill="white"/>
<path d="M49 0H18C10.268 0 4 6.26801 4 14V46C4 53.732 10.268 60 18 60H49C56.732 60 63 53.732 63 46V14C63 6.26801 56.732 0 49 0Z" stroke="#29A0F5"/>
<path d="M51.2452 34.4257L25.4506 14.6013C22.3826 12.2435 17.9841 12.8191 15.6262 15.8871C13.2683 18.955 13.844 23.3536 16.912 25.7114L42.7066 45.5358C45.7746 47.8936 50.1731 47.318 52.531 44.25C54.8888 41.1821 54.3132 36.7836 51.2452 34.4257Z" fill="#0083E1"/>
<path d="M47 13H21C17.134 13 14 16.134 14 20C14 23.866 17.134 27 21 27H47C50.866 27 54 23.866 54 20C54 16.134 50.866 13 47 13Z" fill="#29A0F5"/>
<path d="M47 33H21C17.134 33 14 36.134 14 40C14 43.866 17.134 47 21 47H47C50.866 47 54 43.866 54 40C54 36.134 50.866 33 47 33Z" fill="#29A0F5"/>
<path d="M88.8931 35.062C88.8931 37.3179 88.0785 39.0951 86.4492 40.3941C84.8314 41.6929 82.5755 42.3423 79.6816 42.3423C77.0156 42.3423 74.6572 41.8409 72.6064 40.8383V35.9165C74.2926 36.6685 75.7168 37.1983 76.8789 37.5059C78.0524 37.8135 79.1234 37.9673 80.0918 37.9673C81.2539 37.9673 82.1426 37.7451 82.7578 37.3008C83.3844 36.8565 83.6978 36.1956 83.6978 35.3184C83.6978 34.8285 83.561 34.3955 83.2876 34.0195C83.0142 33.6322 82.6097 33.2619 82.0742 32.9086C81.5501 32.5554 80.4735 31.9914 78.8442 31.2167C77.3175 30.4989 76.1725 29.8096 75.4092 29.1488C74.6458 28.488 74.0363 27.719 73.5806 26.8417C73.1248 25.9644 72.897 24.9391 72.897 23.7656C72.897 21.5554 73.6432 19.8179 75.1357 18.5532C76.6396 17.2886 78.7132 16.6562 81.3564 16.6562C82.6553 16.6562 83.8914 16.8101 85.0649 17.1177C86.2498 17.4253 87.486 17.8582 88.7734 18.4165L87.0645 22.5352C85.7314 21.9883 84.6263 21.6066 83.749 21.3901C82.8831 21.1737 82.0286 21.0653 81.1855 21.0653C80.1829 21.0653 79.4139 21.299 78.8784 21.7661C78.3429 22.2332 78.0752 22.8428 78.0752 23.5947C78.0752 24.0619 78.1834 24.4719 78.3999 24.8251C78.6164 25.1669 78.9582 25.503 79.4253 25.8335C79.9038 26.1525 81.026 26.7336 82.792 27.5767C85.1276 28.6932 86.7284 29.8153 87.5942 30.9433C88.4601 32.0598 88.8931 33.4328 88.8931 35.062ZM103.505 42.3423C101.26 42.3423 99.5002 41.5276 98.2241 39.8983H97.9507C98.133 41.4935 98.2241 42.4163 98.2241 42.667V50.4086H93.0117V22.8941H97.25L97.9849 25.372H98.2241C99.4432 23.4807 101.249 22.5352 103.642 22.5352C105.897 22.5352 107.663 23.4067 108.939 25.1499C110.215 26.8931 110.854 29.3141 110.854 32.4131C110.854 34.4525 110.552 36.2241 109.948 37.728C109.355 39.2319 108.507 40.377 107.401 41.1631C106.296 41.9492 104.997 42.3423 103.505 42.3423ZM101.967 26.705C100.679 26.705 99.7394 27.1039 99.147 27.9014C98.5545 28.6875 98.2469 29.992 98.2241 31.815V32.3788C98.2241 34.4296 98.526 35.8994 99.1299 36.7881C99.7451 37.6768 100.714 38.1211 102.035 38.1211C104.371 38.1211 105.539 36.1956 105.539 32.3447C105.539 30.4649 105.248 29.0577 104.667 28.1234C104.097 27.1778 103.197 26.705 101.967 26.705ZM127.294 42.0005L126.286 39.4028H126.149C125.272 40.508 124.366 41.2769 123.432 41.7099C122.509 42.1314 121.301 42.3423 119.809 42.3423C117.974 42.3423 116.527 41.8182 115.468 40.77C114.42 39.7219 113.896 38.2292 113.896 36.2924C113.896 34.2645 114.602 32.772 116.015 31.815C117.439 30.8465 119.581 30.311 122.44 30.2085L125.756 30.1059V29.2686C125.756 27.3317 124.765 26.3633 122.782 26.3633C121.256 26.3633 119.461 26.8247 117.399 27.7476L115.673 24.2271C117.872 23.0763 120.31 22.5009 122.987 22.5009C125.551 22.5009 127.516 23.0593 128.883 24.1758C130.25 25.2923 130.934 26.9899 130.934 29.2686V42.0005H127.294ZM125.756 33.1479L123.739 33.2163C122.224 33.2619 121.096 33.5352 120.355 34.0365C119.615 34.5378 119.245 35.3012 119.245 36.3266C119.245 37.7963 120.088 38.5312 121.774 38.5312C122.982 38.5312 123.944 38.1838 124.662 37.4888C125.391 36.7938 125.756 35.8708 125.756 34.7201V33.1479ZM148.451 42.0005L147.443 39.4028H147.306C146.429 40.508 145.523 41.2769 144.589 41.7099C143.666 42.1314 142.458 42.3423 140.966 42.3423C139.132 42.3423 137.685 41.8182 136.625 40.77C135.577 39.7219 135.053 38.2292 135.053 36.2924C135.053 34.2645 135.759 32.772 137.172 31.815C138.596 30.8465 140.738 30.311 143.598 30.2085L146.913 30.1059V29.2686C146.913 27.3317 145.922 26.3633 143.939 26.3633C142.413 26.3633 140.618 26.8247 138.556 27.7476L136.83 24.2271C139.029 23.0763 141.467 22.5009 144.145 22.5009C146.708 22.5009 148.673 23.0593 150.041 24.1758C151.408 25.2923 152.091 26.9899 152.091 29.2686V42.0005H148.451ZM146.913 33.1479L144.896 33.2163C143.381 33.2619 142.253 33.5352 141.513 34.0365C140.772 34.5378 140.402 35.3012 140.402 36.3266C140.402 37.7963 141.245 38.5312 142.931 38.5312C144.139 38.5312 145.102 38.1838 145.819 37.4888C146.549 36.7938 146.913 35.8708 146.913 34.7201V33.1479ZM165.524 38.1894C166.435 38.1894 167.529 37.9901 168.805 37.5913V41.4706C167.506 42.0518 165.911 42.3423 164.02 42.3423C161.935 42.3423 160.414 41.8182 159.457 40.77C158.511 39.7105 158.039 38.1268 158.039 36.0191V26.8076H155.543V24.603L158.415 22.8598L159.918 18.8267H163.251V22.8941H168.6V26.8076H163.251V36.0191C163.251 36.7596 163.456 37.3064 163.866 37.6596C164.288 38.0128 164.84 38.1894 165.524 38.1894ZM185.98 42.0005H170.89V38.9243L179.743 26.8759H171.42V22.8941H185.673V26.2778L177.06 38.0186H185.98V42.0005Z" fill="white"/>
</g>
<defs>
<filter id="filter0_d_1_342" x="0" y="0" width="192" height="68" filterUnits="userSpaceOnUse" color-interpolation-filters="sRGB">
<feFlood flood-opacity="0" result="BackgroundImageFix"/>
<feColorMatrix in="SourceAlpha" type="matrix" values="0 0 0 0 0 0 0 0 0 0 0 0 0 0 0 0 0 0 127 0" result="hardAlpha"/>
<feOffset dy="4"/>
<feGaussianBlur stdDeviation="2"/>
<feComposite in2="hardAlpha" operator="out"/>
<feColorMatrix type="matrix" values="0 0 0 0 0 0 0 0 0 0 0 0 0 0 0 0 0 0 0.25 0"/>
<feBlend mode="normal" in2="BackgroundImageFix" result="effect1_dropShadow_1_342"/>
<feBlend mode="normal" in="SourceGraphic" in2="effect1_dropShadow_1_342" result="shape"/>
</filter>
<clipPath id="clip0_1_342">
<rect width="184" height="60" fill="white" transform="translate(4)"/>
</clipPath>
</defs>
</svg>
